<svg id="图层_1" data-name="图层 1" xmlns="http://www.w3.org/2000/svg" viewBox="0 0 60 60"><defs><style>.cls-1{fill:#e7211a;}.cls-2{fill:#358ccc;}</style></defs><title>apix</title><path class="cls-1" d="M9.51,50.46a5.72,5.72,0,1,1-8.09,0,5.71,5.71,0,0,1,8.09,0Zm48.52,0a5.72,5.72,0,1,1-8.09,0,5.74,5.74,0,0,1,8.09,0ZM22.78,54.62l4.35,3c-6.05,2.49-11.89,3.26-16.64,2.1l-.06,0,.09-.09a7.13,7.13,0,0,0,2-3.85,22.4,22.4,0,0,0,10.27-1.1ZM9.57,32.27a54.86,54.86,0,0,0,8,10C27.47,52.25,39.23,57,46.93,55.62a7.14,7.14,0,0,0,2,4c-9.42,2.36-23.19-3-34.41-14.21A60.79,60.79,0,0,1,7.4,36.8l2.17-4.53ZM3.45,52.48a2.86,2.86,0,1,0,4,0,2.87,2.87,0,0,0-4,0Zm48.51,0a2.86,2.86,0,1,0,4,0,2.86,2.86,0,0,0-4,0ZM59,11c2.35,9.44-3,23.22-14.2,34.46a60.24,60.24,0,0,1-8.51,7.1l-4.72-2a55.15,55.15,0,0,0,10.2-8.09C51.73,32.48,56.42,20.71,55.09,13A7.05,7.05,0,0,0,59,11ZM23,8l4.62,2.11a55.46,55.46,0,0,0-10.06,8C7.66,28,3,39.75,4.26,47.46a7.07,7.07,0,0,0-3.84,2l-.1.1c-2.35-9.44,3-23.22,14.2-34.46A61,61,0,0,1,23,8ZM57,32.73c2.5,6.09,3.27,12,2.08,16.72h0a7.12,7.12,0,0,0-3.95-2,22.06,22.06,0,0,0-1-10.07L57,32.73ZM44.84,15a59.78,59.78,0,0,1,7.07,8.48L49.7,27.94A54.68,54.68,0,0,0,41.81,18c-9.89-9.9-21.6-14.6-29.3-13.3a7,7,0,0,0-2-3.85l-.1-.1c9.43-2.35,23.2,3,34.42,14.22ZM.32,10.9l.1.09a7.08,7.08,0,0,0,3.84,2,22.19,22.19,0,0,0,1,10L2.5,27.86C-.06,21.71-.87,15.78.31,11V10.9Zm9.19-9a5.72,5.72,0,1,1-8,.05,5.72,5.72,0,0,1,8-.05ZM58,1.89a5.72,5.72,0,1,1-8,.05,5.72,5.72,0,0,1,8-.05Zm-54.58,2a2.86,2.86,0,1,0,4,0,2.87,2.87,0,0,0-4,0ZM52,3.91a2.86,2.86,0,1,0,4,0,2.86,2.86,0,0,0-4,0Zm-3-3h0a7.18,7.18,0,0,0-2,4,21.87,21.87,0,0,0-10,1L32.29,2.93C38.35.45,44.19-.31,48.94.87Zm0,0" transform="translate(0.25 -0.23)"/><path class="cls-2" d="M20,32.72H15.59l-1,2.81H12.53l4-10.59h2.68L23.1,35.53H21ZM19.42,31l-1.51-4.31h-.19L16.19,31Z" transform="translate(0.25 -0.23)"/><path class="cls-2" d="M24.43,24.94h3.38a8.14,8.14,0,0,1,1.94.2,2.88,2.88,0,0,1,1.26.63,2.43,2.43,0,0,1,.67,1.09,5.88,5.88,0,0,1,.19,1.61,5.5,5.5,0,0,1-.22,1.69,2.57,2.57,0,0,1-.73,1.12,2.87,2.87,0,0,1-1.26.62,7.68,7.68,0,0,1-1.85.19H26.42v3.44h-2Zm3.13,5.54a5.45,5.45,0,0,0,1.08-.09,1.57,1.57,0,0,0,.7-.32,1.32,1.32,0,0,0,.38-.61,3.73,3.73,0,0,0,.11-1,1.87,1.87,0,0,0-.5-1.51,2.73,2.73,0,0,0-1.77-.43H26.42v3.92Z" transform="translate(0.25 -0.23)"/><path class="cls-2" d="M33.88,24.94h2V35.53h-2Z" transform="translate(0.25 -0.23)"/><path class="cls-2" d="M40.77,30.14l-3.12-5.2H40l2.2,4h.1l2.31-4h2.27l-3.2,5.11L47,35.53H44.61l-2.35-4.17h-.09l-2.48,4.17H37.4Z" transform="translate(0.25 -0.23)"/></svg>